<?xml version="1.0" standalone="no"?>
<!DOCTYPE svg PUBLIC "-//W3C//DTD SVG 20010904//EN"
 "http://www.w3.org/TR/2001/REC-SVG-20010904/DTD/svg10.dtd">
<svg version="1.0" xmlns="http://www.w3.org/2000/svg"
 width="1772.000000pt" height="1772.000000pt" viewBox="0 0 1772.000000 1772.000000"
 preserveAspectRatio="xMidYMid meet">

<g transform="translate(0.000000,1772.000000) scale(0.100000,-0.100000)"
fill="#000000" stroke="none">
<path d="M6510 12381 c-176 -37 -268 -65 -369 -112 -309 -146 -498 -389 -572
-734 -27 -128 -27 -409 1 -557 33 -184 84 -310 183 -458 141 -209 386 -366
642 -411 l63 -11 -43 -86 c-23 -48 -127 -258 -230 -467 -398 -807 -493 -1002
-528 -1087 l-16 -38 325 0 325 0 58 123 c32 67 70 147 84 177 24 54 125 262
282 585 161 331 247 512 268 560 11 28 39 86 61 130 l41 80 740 0 740 0 3
-827 2 -828 290 0 290 0 0 830 0 830 733 0 c687 0 735 -1 749 -17 8 -10 32
-54 53 -98 21 -44 70 -147 110 -230 40 -82 89 -186 110 -230 20 -44 72 -152
115 -240 43 -88 96 -198 118 -245 22 -47 75 -157 117 -245 80 -167 109 -228
143 -307 l21 -48 331 0 331 0 -15 28 c-7 15 -39 79 -69 142 -30 63 -128 264
-217 445 -302 614 -520 1062 -520 1070 0 3 13 5 29 5 62 0 194 38 301 88 46
21 176 108 219 146 173 154 267 335 340 651 30 129 30 392 0 520 -59 253 -129
393 -273 539 -143 146 -300 234 -516 290 -230 59 -92 56 -2531 55 -2092 -1
-2239 -2 -2319 -18z m2060 -1136 l0 -585 -960 0 c-638 0 -977 4 -1012 11 -228
45 -399 199 -455 408 -9 35 -15 105 -16 186 -1 143 18 224 70 308 59 97 156
168 288 213 121 41 146 42 1133 43 l952 1 0 -585z m2541 571 c129 -21 277 -90
344 -160 28 -29 73 -95 88 -127 56 -123 63 -349 13 -493 -48 -139 -131 -235
-261 -297 -163 -79 -85 -73 -1172 -77 l-973 -2 0 585 0 585 938 0 c752 0 954
-3 1023 -14z"/>
<path d="M9291 7478 c-24 -62 -54 -135 -66 -163 -21 -45 -85 -200 -135 -325
-137 -342 -137 -342 -202 -405 l-63 -60 149 -3 c82 -1 151 0 154 3 3 3 -18 29
-46 58 -31 31 -49 57 -44 62 5 6 24 48 42 95 18 47 38 91 43 98 7 9 54 12 191
10 l181 -3 20 -40 c30 -58 65 -145 65 -162 0 -8 -18 -35 -40 -60 -22 -25 -40
-50 -40 -54 0 -5 95 -9 210 -9 116 0 210 4 210 9 0 5 -25 28 -54 52 -58 47
-63 54 -121 194 -20 50 -40 99 -45 110 -5 11 -23 56 -40 100 -33 81 -46 113
-73 175 -8 19 -38 91 -66 160 -116 288 -103 265 -147 268 l-40 3 -43 -113z
m47 -234 c6 -11 17 -38 25 -60 8 -21 33 -84 56 -138 22 -55 41 -103 41 -108 0
-4 -67 -8 -150 -8 -82 0 -150 2 -150 5 0 4 42 108 143 358 l12 28 6 -28 c3
-15 11 -37 17 -49z"/>
<path d="M13239 7578 c-9 -7 -28 -42 -42 -78 -13 -36 -62 -155 -107 -265 -45
-110 -118 -289 -162 -398 -80 -196 -81 -198 -139 -249 -33 -28 -59 -55 -59
-59 0 -5 68 -9 150 -9 83 0 150 4 150 8 0 4 -20 28 -45 52 -25 24 -45 49 -45
54 0 14 71 188 83 204 7 9 57 12 187 12 130 0 180 -3 188 -12 15 -20 72 -154
78 -185 4 -22 -2 -36 -28 -64 -70 -76 -85 -69 152 -69 241 0 239 -1 151 74
-30 25 -60 60 -67 78 -14 38 -120 303 -133 333 -5 11 -19 45 -31 75 -13 30
-29 69 -36 85 -7 17 -26 64 -43 105 -126 312 -128 315 -158 318 -15 2 -35 -3
-44 -10z m-5 -333 c8 -16 25 -57 39 -90 13 -33 39 -93 56 -133 17 -40 31 -77
31 -82 0 -6 -58 -10 -151 -10 l-150 0 7 22 c4 12 27 70 51 128 24 58 56 137
71 175 21 54 28 64 30 45 2 -14 9 -38 16 -55z"/>
<path d="M5560 7561 c-281 -53 -474 -344 -416 -627 8 -44 31 -110 50 -149 126
-253 433 -356 702 -235 33 15 71 36 84 46 104 85 134 125 182 237 29 66 31 81
32 192 1 137 -14 197 -68 287 -93 155 -245 244 -430 253 -50 2 -111 0 -136 -4z
m240 -108 c61 -36 97 -77 132 -151 75 -158 67 -422 -17 -566 -63 -108 -159
-162 -271 -153 -113 8 -185 64 -239 182 -93 203 -64 513 59 637 66 68 130 90
231 82 39 -4 75 -14 105 -31z"/>
<path d="M6850 7561 c-94 -16 -185 -71 -230 -138 -27 -43 -30 -53 -30 -132 0
-65 5 -94 21 -128 40 -83 127 -145 274 -194 175 -60 235 -110 235 -199 0 -122
-87 -199 -214 -188 -98 8 -169 61 -232 174 -19 34 -43 88 -52 118 -14 47 -20
56 -39 56 -23 0 -23 -1 -23 -143 0 -137 1 -143 24 -168 66 -71 205 -118 351
-119 229 0 374 117 383 311 8 157 -70 240 -298 319 -98 34 -179 80 -208 118
-21 28 -26 45 -26 86 1 62 21 96 72 127 45 27 139 30 192 6 54 -24 110 -88
130 -149 13 -40 22 -54 38 -56 21 -3 22 -1 22 117 l0 120 -31 17 c-80 41 -254
63 -359 45z"/>
<path d="M10900 7539 c0 -9 23 -37 50 -62 l50 -46 -1 -278 c0 -221 -3 -273
-12 -252 -11 23 -59 77 -336 378 -100 109 -103 112 -190 210 l-54 61 -109 0
c-81 0 -108 -3 -108 -13 0 -7 23 -35 50 -62 l50 -49 0 -391 0 -391 -55 -54
c-30 -30 -55 -58 -55 -62 0 -4 65 -8 145 -8 87 0 145 4 145 10 0 5 -21 31 -47
57 l-48 47 -2 336 c-1 184 1 328 4 320 6 -15 101 -123 269 -305 50 -55 156
-172 235 -260 160 -178 186 -205 194 -205 3 0 5 204 5 454 l0 454 50 51 c28
28 50 57 50 64 0 9 -35 12 -140 12 -123 0 -140 -2 -140 -16z"/>
<path d="M3900 7546 c0 -4 25 -33 55 -66 l56 -61 -3 -393 -3 -393 -52 -48
c-29 -26 -53 -51 -53 -56 0 -5 92 -9 205 -9 113 0 205 3 205 7 0 3 -23 30 -50
59 l-51 53 3 158 3 158 57 3 57 3 53 -73 c30 -40 76 -107 103 -148 90 -135
180 -214 289 -252 44 -15 81 -28 83 -28 10 0 -4 30 -57 126 -33 59 -60 109
-60 110 0 1 -21 40 -48 86 -26 46 -57 104 -70 130 -20 40 -29 48 -60 54 l-37
7 39 14 c99 34 177 109 206 196 18 58 9 155 -21 213 -27 53 -94 110 -156 133
-28 10 -121 15 -365 18 -181 3 -328 2 -328 -1z m588 -110 c102 -64 123 -230
42 -330 -39 -48 -144 -73 -256 -61 l-64 7 0 202 c0 112 3 206 8 210 4 5 57 6
117 4 99 -4 114 -7 153 -32z"/>
<path d="M7710 7540 c0 -5 23 -30 50 -56 l50 -47 0 -394 0 -395 -56 -64 -56
-64 419 0 419 0 12 88 c7 48 16 104 19 125 4 25 2 37 -6 37 -7 0 -48 -38 -93
-85 l-80 -85 -183 0 c-181 0 -183 0 -189 23 -10 38 -7 367 4 388 10 18 23 19
170 19 l159 0 31 -45 c17 -25 35 -45 40 -45 6 0 10 53 10 125 0 141 -8 154
-54 85 l-26 -40 -164 0 c-194 0 -176 -19 -176 180 0 200 -21 180 196 180 134
0 186 -3 194 -12 5 -7 31 -40 56 -73 46 -62 64 -76 64 -53 0 28 -20 181 -25
199 -6 18 -23 19 -396 19 -242 0 -389 -4 -389 -10z"/>
<path d="M11520 7543 c0 -3 25 -32 55 -64 l55 -58 0 -386 0 -386 -55 -58 c-30
-32 -55 -61 -55 -64 0 -4 66 -7 146 -7 l147 0 -52 54 c-28 30 -51 63 -52 73 0
10 -2 158 -2 328 l-2 311 51 -56 c28 -30 71 -77 95 -105 24 -27 102 -112 173
-190 257 -278 323 -351 354 -385 l31 -35 1 453 0 453 50 53 c28 29 50 58 50
64 0 9 -41 12 -140 12 -84 0 -140 -4 -140 -10 0 -5 23 -33 50 -62 l50 -52 0
-271 c-1 -204 -3 -265 -12 -250 -10 18 -131 158 -168 195 -8 8 -55 60 -105
115 -49 55 -97 107 -105 115 -8 8 -53 58 -100 110 -47 52 -89 98 -95 102 -12
9 -225 10 -225 1z"/>
<path d="M9740 5814 c-85 -30 -124 -96 -101 -166 23 -69 44 -79 202 -92 128
-11 143 -14 160 -35 46 -56 8 -120 -83 -141 -91 -22 -187 -1 -252 55 l-30 26
-20 -20 -20 -21 24 -25 c13 -14 48 -37 78 -52 48 -23 67 -27 148 -26 80 0 101
4 148 27 38 19 59 36 70 60 35 74 8 158 -61 194 -12 7 -80 16 -152 20 -112 7
-133 11 -146 28 -73 96 134 166 269 91 42 -23 46 -24 60 -8 24 27 20 34 -35
65 -65 36 -187 46 -259 20z"/>
<path d="M7700 5569 l0 -250 28 3 27 3 3 101 3 101 132 5 c143 5 180 16 211
63 26 40 31 113 9 155 -31 60 -65 70 -250 70 l-163 0 0 -251z m349 165 c28
-36 27 -79 -4 -109 -23 -24 -29 -25 -155 -25 l-130 0 0 80 0 80 134 0 c133 0
135 0 155 -26z"/>
<path d="M8303 5591 c-137 -284 -133 -271 -93 -271 29 0 33 5 65 75 19 41 35
80 35 85 0 6 49 10 125 10 l125 0 40 -85 c37 -79 42 -85 70 -85 17 0 30 4 30
9 0 5 -24 60 -54 122 -29 63 -67 143 -83 179 -93 205 -84 190 -118 190 -31 0
-33 -2 -142 -229z m167 107 c0 -4 14 -37 30 -73 17 -36 30 -68 30 -70 0 -3
-40 -5 -90 -5 -49 0 -90 2 -90 4 0 2 20 45 45 96 42 85 47 91 60 74 8 -11 15
-22 15 -26z"/>
<path d="M8820 5570 l0 -250 30 0 30 0 0 105 0 105 98 0 98 0 22 -42 c68 -134
90 -163 121 -166 37 -4 38 5 9 55 -61 107 -81 147 -72 150 31 10 77 47 94 75
39 64 16 152 -49 195 -32 22 -44 23 -207 23 l-174 0 0 -250z m343 178 c45 -24
59 -67 35 -111 -22 -42 -37 -46 -180 -47 l-138 0 0 85 0 85 131 0 c80 0 139
-4 152 -12z"/>
<path d="M9410 5570 l0 -250 30 0 30 0 0 250 0 250 -30 0 -30 0 0 -250z"/>
</g>
</svg>
