<?xml version="1.0" standalone="no"?>
<!DOCTYPE svg PUBLIC "-//W3C//DTD SVG 20010904//EN"
 "http://www.w3.org/TR/2001/REC-SVG-20010904/DTD/svg10.dtd">
<svg version="1.0" xmlns="http://www.w3.org/2000/svg"
 width="3276.000000pt" height="924.000000pt" viewBox="0 0 3276.000000 924.000000"
 preserveAspectRatio="xMidYMid meet">

<g transform="translate(0.000000,924.000000) scale(0.100000,-0.100000)"
fill="#000000" stroke="none">
<path d="M3760 7801 l0 -402 353 3 c297 3 357 6 387 19 85 39 95 76 94 374 0
260 -7 310 -50 350 -44 41 -92 46 -446 52 l-338 6 0 -402z"/>
<path d="M15220 7390 c0 -445 -2 -810 -5 -810 -3 0 -60 34 -127 76 -162 100
-278 158 -402 199 -319 106 -637 109 -951 8 -145 -47 -254 -99 -378 -183 -359
-241 -571 -599 -658 -1110 -31 -181 -34 -553 -6 -730 72 -456 232 -802 482
-1038 206 -195 467 -324 760 -374 166 -28 429 -22 585 15 202 48 346 111 580
255 l115 71 3 -145 3 -144 332 2 332 3 0 2355 0 2355 -332 3 -333 2 0 -810z
m-642 -1114 c141 -35 296 -142 419 -288 126 -150 202 -281 223 -383 16 -83 23
-515 11 -695 -12 -188 -23 -235 -76 -340 -135 -268 -347 -446 -610 -512 -127
-32 -381 -32 -500 0 -346 94 -565 370 -642 812 -13 72 -17 158 -18 350 0 293
5 322 94 518 156 346 328 499 619 552 74 14 407 4 480 -14z"/>
<path d="M23942 8189 c-159 -10 -193 -25 -205 -89 -12 -70 -3 -600 11 -633 24
-58 50 -61 445 -65 l357 -4 0 401 0 401 -242 -1 c-134 -1 -298 -5 -366 -10z"/>
<path d="M25760 7380 l0 -520 -336 0 -336 0 4 -257 c3 -176 9 -269 17 -291 24
-61 45 -65 354 -73 153 -4 281 -9 284 -13 3 -3 8 -144 10 -313 19 -1509 26
-1729 59 -1858 58 -225 278 -455 534 -559 169 -69 329 -91 605 -83 278 8 524
50 620 106 56 32 59 51 63 339 2 144 2 262 -1 262 -3 0 -36 -7 -74 -16 -215
-50 -600 -78 -776 -56 -161 20 -254 83 -298 202 -47 126 -51 208 -56 1123 l-5
857 384 0 c590 0 678 13 718 102 18 39 20 67 20 286 l0 242 -560 0 -560 0 0
520 0 520 -335 0 -335 0 0 -520z"/>
<path d="M21036 6930 c-217 -25 -395 -79 -621 -190 -179 -87 -292 -167 -430
-305 -138 -138 -226 -261 -314 -440 -78 -157 -128 -304 -163 -475 -20 -102
-23 -143 -23 -355 1 -222 3 -249 27 -366 81 -375 244 -670 512 -927 403 -384
1014 -550 1591 -431 529 109 984 451 1199 903 187 393 235 889 127 1313 -131
512 -503 939 -994 1142 -120 49 -281 96 -407 116 -114 19 -394 27 -504 15z
m316 -631 c305 -33 511 -138 678 -346 277 -344 338 -879 151 -1312 -116 -269
-229 -390 -473 -506 -51 -24 -133 -56 -183 -71 -85 -26 -101 -28 -285 -28
-185 0 -200 1 -285 27 -195 60 -329 141 -461 280 -134 141 -215 291 -271 506
-35 133 -43 382 -18 533 42 256 144 466 304 632 230 237 486 323 843 285z"/>
<path d="M2315 6914 c-192 -34 -399 -136 -627 -310 l-48 -36 0 146 0 146 -335
0 -335 0 0 -1690 0 -1690 333 2 332 3 6 970 c7 1160 11 1223 100 1413 95 206
249 351 442 415 53 18 86 21 237 21 254 0 344 -22 626 -148 44 -20 94 -39 111
-42 30 -6 32 -4 44 37 9 31 13 131 14 339 l0 295 -100 40 c-125 52 -194 71
-320 90 -124 19 -372 18 -480 -1z"/>
<path d="M10075 6919 c-226 -29 -493 -135 -705 -280 -434 -298 -685 -758 -731
-1341 -46 -577 182 -1151 594 -1497 385 -322 881 -455 1402 -375 502 77 877
301 1127 673 119 178 216 392 202 446 -14 55 -42 60 -356 63 l-286 3 -105
-138 c-113 -150 -259 -298 -328 -333 -194 -100 -616 -136 -854 -75 -154 40
-338 167 -458 316 -85 104 -227 380 -227 440 0 68 50 91 238 109 94 9 1624 29
2260 30 l182 0 0 169 c0 194 -13 336 -42 471 -73 339 -258 675 -500 906 -296
282 -706 427 -1198 423 -80 -1 -176 -6 -215 -10z m528 -629 c205 -45 395 -173
538 -363 33 -44 92 -142 130 -219 l69 -138 -767 0 c-766 0 -1089 9 -1150 31
-44 15 -42 36 6 125 132 243 268 383 466 481 117 58 209 86 360 107 62 9 260
-5 348 -24z"/>
<path d="M18280 6920 c-214 -29 -398 -111 -615 -272 -58 -43 -107 -78 -110
-78 -3 0 -5 65 -5 145 l0 145 -335 0 -335 0 2 -1687 3 -1688 331 -3 331 -2 6
382 c4 211 10 723 14 1138 l6 755 81 135 c163 271 332 390 597 419 179 20 357
-12 599 -109 194 -77 250 -94 261 -83 17 17 30 247 27 462 l-3 205 -110 44
c-161 65 -302 92 -510 97 -93 2 -199 0 -235 -5z"/>
<path d="M29602 6920 c-411 -40 -914 -363 -1178 -756 -196 -294 -308 -751
-276 -1132 32 -393 156 -729 374 -1015 154 -202 339 -338 653 -480 178 -81
237 -97 413 -110 183 -13 580 2 732 29 284 49 517 173 734 391 145 145 297
362 361 513 22 51 65 212 65 240 0 13 -561 13 -614 0 -58 -13 -84 -37 -131
-120 -119 -209 -306 -348 -561 -417 -91 -25 -115 -27 -289 -27 -164 -1 -202 2
-279 22 -178 45 -324 122 -444 236 -97 92 -156 183 -222 342 -48 118 -99 288
-89 298 3 3 605 10 1339 16 734 7 1337 13 1339 15 2 3 8 66 13 142 25 381 -88
802 -300 1119 -123 183 -340 380 -534 484 -218 117 -359 170 -520 195 -123 19
-456 27 -586 15z m453 -625 c164 -26 287 -82 423 -191 162 -130 275 -290 348
-498 l14 -39 -947 6 c-522 3 -960 9 -975 13 -16 3 -28 13 -28 20 0 25 70 155
139 259 197 299 462 441 826 444 61 1 151 -6 200 -14z"/>
<path d="M3842 5173 l3 -1688 333 -3 332 -2 0 1690 0 1690 -335 0 -335 0 2
-1687z"/>
<path d="M5124 6851 c-62 -10 -74 -17 -74 -40 0 -28 98 -311 195 -561 95 -247
553 -1440 812 -2115 90 -236 183 -479 207 -540 l42 -110 210 4 c115 2 278 6
363 10 l154 6 159 420 c88 231 366 958 617 1615 252 657 464 1212 472 1233 16
46 5 69 -37 78 -16 4 -175 7 -354 8 l-325 1 -58 -163 c-278 -770 -679 -1900
-799 -2249 -12 -35 -26 -58 -34 -58 -9 0 -26 24 -39 53 -28 62 -255 689 -606
1678 l-254 717 -100 6 c-188 11 -500 15 -551 7z"/>
<path d="M23800 5170 l0 -1690 335 0 335 0 0 1690 0 1690 -335 0 -335 0 0
-1690z"/>
<path d="M23512 1449 c3 -606 5 -678 20 -711 28 -62 105 -62 129 -1 10 26 21
152 35 406 l6 109 124 -4 123 -3 41 -40 c23 -22 89 -120 148 -220 121 -203
185 -279 245 -290 47 -9 127 2 127 18 0 7 -52 104 -116 217 -138 243 -177 321
-172 352 2 16 18 31 53 48 106 53 183 166 204 300 33 210 -92 405 -284 445
-65 13 -209 24 -553 41 l-133 6 3 -673z m494 480 c112 -15 175 -42 222 -93 47
-50 67 -111 57 -170 -15 -96 -81 -186 -150 -205 -23 -6 -127 -11 -249 -11
l-208 0 4 208 c3 119 10 219 16 234 7 18 23 31 44 37 46 13 171 13 264 0z"/>
<path d="M19803 2101 c-24 -4 -45 -10 -49 -13 -22 -23 -27 -133 -31 -740 l-5
-658 77 0 c66 0 79 3 99 23 29 29 33 58 46 327 6 112 15 207 20 210 6 4 88 12
183 19 258 18 374 47 452 114 68 57 115 190 115 328 0 94 -24 145 -111 242
-68 76 -121 110 -194 126 -108 24 -501 38 -602 22z m325 -166 c256 -24 304
-46 358 -160 40 -85 30 -161 -29 -223 -70 -74 -180 -108 -378 -118 l-126 -7
-6 84 c-4 46 -10 164 -13 262 l-7 177 24 0 c13 0 93 -7 177 -15z"/>
<path d="M21893 2103 c-7 -2 -13 -9 -13 -14 0 -5 -87 -242 -194 -527 -276
-735 -309 -831 -295 -848 16 -20 99 -18 129 3 40 28 58 54 90 133 55 135 73
169 99 194 27 26 27 26 291 34 146 5 268 7 271 6 4 -2 30 -75 58 -162 35 -107
61 -169 80 -193 27 -32 32 -34 94 -34 96 0 99 6 59 123 -47 137 -322 869 -377
1004 -61 148 -112 244 -143 268 -18 15 -39 20 -81 19 -31 0 -62 -3 -68 -6z
m141 -349 c50 -131 166 -461 166 -473 0 -23 -86 -33 -220 -26 -144 7 -183 18
-188 51 -4 25 53 204 113 359 61 156 74 185 84 185 5 0 25 -43 45 -96z"/>
<path d="M25492 2073 c-15 -34 -17 -95 -20 -627 -3 -602 1 -701 34 -737 20
-22 62 -25 87 -6 33 25 38 96 44 567 5 483 -4 756 -28 806 -12 24 -21 30 -57
32 -41 3 -43 2 -60 -35z"/>
<path d="M26887 2099 c-58 -14 -87 -32 -149 -96 -82 -83 -102 -134 -102 -258
0 -152 46 -250 152 -326 59 -41 111 -59 316 -108 156 -37 269 -88 296 -134 28
-46 28 -192 0 -247 -39 -76 -109 -105 -260 -105 -102 0 -107 1 -182 39 -94 46
-170 118 -190 178 -9 26 -24 48 -39 55 -28 15 -137 17 -158 4 -38 -24 43 -208
130 -293 169 -165 473 -205 705 -93 155 75 244 235 231 416 -3 43 -13 96 -25
121 -41 94 -187 169 -452 233 -131 32 -182 52 -246 95 -86 60 -112 166 -65
264 58 119 251 162 412 90 65 -29 135 -98 146 -143 11 -48 32 -78 63 -91 27
-11 36 -10 88 16 50 25 57 33 60 61 5 52 -49 153 -113 211 -94 86 -230 123
-448 121 -73 -1 -149 -5 -170 -10z"/>
</g>
</svg>
